# xmcd CD database file
# 
# Track frame offsets:
# 	150
# 	13555
# 	29577
# 	40255
# 	59355
# 	71910
# 	80202
# 	95825
# 	112750
# 	127380
# 	144382
# 	158137
# 	176212
# 	190205
# 	208822
# 	222232
# 	235252
# 
# Disc length: 3346 seconds
# 
# Submitted via: Nero 5.5.8.2
# 
# Revision: 0
# Processed by: cddbd v1.4PL0 Copyright (c) Steve Scherf et al.
#
DISCID=070d1011
DTITLE=Country Current -- The United States Navy Band - Havin' A Ball
DYEAR=1900
DGENRE=
TTITLE0=(Is There Anybody Going To) San Atnone
TTITLE1=Mercury Blues
TTITLE2=Ain't Nobody Gonna Miss Me When I'm Gone
TTITLE3=When Did You Stop Loving Me
TTITLE4=A Walk In The Irish Rain
TTITLE5=Hello Trouble
TTITLE6=Havin' A Ball
TTITLE7=(Don't Take Her) She's All I Got
TTITLE8=Last Thing On My Mind
TTITLE9=Douglas The Dog
TTITLE10=Love Grows Wild
TTITLE11=When You Say Nothing At All
TTITLE12=The Old Home Place
TTITLE13=Georgia
TTITLE14=Highway 40 Blues
TTITLE15=Tumbling Tumbleweeds
TTITLE16=Louisiana Saturday Night
EXTD=
EXTT0=
EXTT1=
EXTT2=
EXTT3=
EXTT4=
EXTT5=
EXTT6=
EXTT7=
EXTT8=
EXTT9=
EXTT10=
EXTT11=
EXTT12=
EXTT13=
EXTT14=
EXTT15=
EXTT16=
PLAYORDER=
